<?xml version="1.0" encoding="utf-8"?>
<!-- Generator: Adobe Illustrator 19.0.0, SVG Export Plug-In . SVG Version: 6.00 Build 0)  -->
<svg version="1.1" xmlns="http://www.w3.org/2000/svg" xmlns:xlink="http://www.w3.org/1999/xlink" x="0px" y="0px"
	 viewBox="0 0 595.3 841.9" style="enable-background:new 0 0 595.3 841.9;" xml:space="preserve">
<style type="text/css">
	.st0{fill:none;stroke:#1A9BAC;stroke-miterlimit:10;}
	.st1{fill:#C1BFBC;}
	.st2{fill:none;stroke:#C1BFBC;stroke-miterlimit:10;}
	.st3{fill:url(#XMLID_2_);}
	.st4{fill:#30B28A;}
	.st5{font-family:'OpenSans';}
	.st6{font-size:14.6893px;}
	.st7{fill:#FFFFFF;}
	.st8{fill:none;stroke:#FFFFFF;stroke-miterlimit:10;}
	.st9{fill:none;stroke:url(#XMLID_3_);stroke-width:4;stroke-miterlimit:10;}
	.st10{fill:url(#XMLID_4_);}
	.st11{fill:url(#XMLID_5_);}
	.st12{fill:#F89521;}
	.st13{fill:#E6283F;}
	.st14{fill:#FFFFFF;stroke:#FFFFFF;stroke-miterlimit:10;}
	.st15{font-family:'CenturyGothic';}
	.st16{font-size:14.488px;}
	.st17{fill:none;stroke:url(#XMLID_6_);stroke-width:3;stroke-miterlimit:10;}
	.st18{fill:none;stroke:url(#XMLID_8_);stroke-width:3;stroke-miterlimit:10;}
	.st19{fill:#17B6A2;}
	.st20{font-family:'Modern-Regular';}
	.st21{font-size:10.5409px;}
	.st22{fill:url(#XMLID_9_);}
	.st23{fill:url(#XMLID_10_);}
	.st24{fill:#1B293A;stroke:#FFFFFF;stroke-miterlimit:10;}
	.st25{font-size:11.3512px;}
	.st26{fill:url(#XMLID_11_);}
	.st27{fill:none;stroke:#FFFFFF;stroke-width:0.701;stroke-linecap:round;stroke-miterlimit:10;}
	.st28{font-size:9.4095px;}
	.st29{fill:url(#XMLID_12_);}
	.st30{fill:url(#XMLID_29_);}
	.st31{fill:#FFFFFF;stroke:url(#XMLID_31_);stroke-miterlimit:10;}
	.st32{fill:#FFFFFF;stroke:url(#XMLID_33_);stroke-miterlimit:10;}
	.st33{fill:#FFFFFF;stroke:url(#XMLID_34_);stroke-miterlimit:10;}
	.st34{fill:#E5EBEE;}
	.st35{fill:none;stroke:#D4DADD;stroke-miterlimit:10;}
	.st36{fill:url(#XMLID_35_);}
	.st37{fill:url(#XMLID_36_);}
	.st38{font-family:'MyriadPro-Regular';}
	.st39{font-size:20px;}
	.st40{fill:#EEADCE;}
	.st41{opacity:0.28;}
	.st42{fill:url(#XMLID_37_);}
	.st43{font-size:14px;}
	.st44{fill:none;}
	.st45{fill:none;stroke:url(#XMLID_38_);stroke-miterlimit:10;}
	.st46{fill:none;stroke:url(#XMLID_39_);stroke-miterlimit:10;}
	.st47{fill:#1B293A;}
	.st48{font-size:10px;}
	.st49{font-family:'CenturyGothic-Bold';}
	.st50{font-size:22px;}
</style>
<g id="Layer_5">
</g>
<g id="Layer_1">
</g>
<g id="Layer_3">
</g>
<g id="Layer_4">
</g>
<g id="Layer_6">
</g>
<g id="Layer_7">
	<rect id="XMLID_339_" x="168.2" y="362.5" class="st0" width="146.7" height="146.7"/>
	<polygon id="XMLID_338_" class="st1" points="283.8,469.3 262.3,438.4 254.2,453.9 215.1,410.2 196.2,469.3 	"/>
	<ellipse id="XMLID_337_" class="st1" cx="281.8" cy="414.9" rx="11.5" ry="11.4"/>
	<rect id="XMLID_336_" x="180" y="388.7" class="st2" width="122.7" height="99.5"/>
	<linearGradient id="XMLID_2_" gradientUnits="userSpaceOnUse" x1="13.3586" y1="285.6504" x2="561.5886" y2="285.6504">
		<stop  offset="0" style="stop-color:#68C18B"/>
		<stop  offset="1" style="stop-color:#39B2BA"/>
	</linearGradient>
	<path id="XMLID_422_" class="st3" d="M561.6,242.1v30.1c-5.3,1.3-9.2,6-9.2,11.7v57.1c-0.9,0.2-1.8,0.3-2.8,0.3H25.4
		c-1,0-2-0.1-3-0.4v-57c0-5.6-3.8-10.3-9-11.6v-30.1c0-6.6,5.4-12,12-12h524.2C556.2,230.1,561.6,235.5,561.6,242.1z"/>
	<g id="XMLID_268_">
		<text id="XMLID_32_" transform="matrix(1 0 0 1 36.8825 372.4813)" class="st4 st5 st6">Plus de filtres</text>
	</g>
	<g id="XMLID_374_">
		<g id="XMLID_267_">
			<text id="XMLID_30_" transform="matrix(1 0 0 1 111.7183 317.2635)" class="st7 st5 st6">Recherche</text>
		</g>
		<g id="XMLID_233_">
			<path id="XMLID_238_" class="st7" d="M469.2,313.9c2.8-3.7,2-8.9-1.9-11.6c-3.4-2.4-8.2-1.7-10.8,1.5c-2.2,2.7-2.4,6.3-0.8,9.2
				c0.4,0.7,0.4,1.6-0.1,2.3l-3.7,4.9c-0.6,0.8-0.6,2,0.2,2.6c0.8,0.7,2,0.6,2.7-0.3l3.8-5c0.5-0.7,1.4-1,2.2-0.8
				C463.8,317.6,467.1,316.6,469.2,313.9z M459.6,313.2c-2.3-1.8-2.8-5-1-7.4c1.8-2.3,5-2.8,7.4-1c2.3,1.8,2.8,5,1,7.4
				C465.2,314.5,461.9,314.9,459.6,313.2z"/>
			<circle id="XMLID_237_" class="st7" cx="463.2" cy="306.8" r="1.6"/>
		</g>
		<path id="XMLID_244_" class="st8" d="M466.5,329.1H112.4c-9.3,0-17-7.6-17-17v0c0-9.3,7.6-17,17-17h354.1c9.3,0,17,7.6,17,17v0
			C483.5,321.5,475.8,329.1,466.5,329.1z"/>
	</g>
	<linearGradient id="XMLID_3_" gradientUnits="userSpaceOnUse" x1="377.991" y1="512.181" x2="557.991" y2="512.181">
		<stop  offset="0" style="stop-color:#68C18B"/>
		<stop  offset="1" style="stop-color:#39B2BA"/>
	</linearGradient>
	<path id="XMLID_266_" class="st9" d="M544,667H392c-6.6,0-12-5.4-12-12V369.3c0-6.6,5.4-12,12-12h152c6.6,0,12,5.4,12,12V655
		C556,661.6,550.6,667,544,667z"/>
	<g id="XMLID_380_">
		<linearGradient id="XMLID_4_" gradientUnits="userSpaceOnUse" x1="38.3834" y1="420.945" x2="68.2857" y2="420.945">
			<stop  offset="0" style="stop-color:#68C18B"/>
			<stop  offset="1" style="stop-color:#39B2BA"/>
		</linearGradient>
		<circle id="XMLID_384_" class="st10" cx="53.3" cy="420.9" r="15"/>
		<g id="XMLID_381_">
			<path id="XMLID_383_" class="st7" d="M49.6,423.1h8.9c0.4,0,0.7-0.3,0.8-0.7l1.1-6.5c0.1-0.5-0.3-0.9-0.8-0.9H49.2
				c-0.5,0-0.8,0.4-0.8,0.8l0.4,6.5C48.8,422.7,49.2,423.1,49.6,423.1z"/>
			<path id="XMLID_382_" class="st7" d="M60.8,423.8H48.2c-0.2,0-0.4-0.2-0.4-0.4l0-0.8c-0.1-2.1-0.3-5.4-0.3-6.2
				c0-0.2-0.1-0.4-0.1-0.6l-0.9-1.8c-0.1-0.3-0.5-0.4-0.8-0.3c-0.3,0.1-0.4,0.5-0.3,0.8l0.9,1.8c0,0,0,0.1,0,0.1
				c0,0.8,0.2,4.1,0.3,6.2l0,0.8c0,0.9,0.8,1.6,1.7,1.6h0.7c-0.3,0.3-0.5,0.8-0.5,1.3c0,1,0.9,1.9,1.9,1.9c1,0,1.9-0.9,1.9-1.9
				c0-0.5-0.2-0.9-0.5-1.3h4.5c-0.3,0.3-0.5,0.8-0.5,1.3c0,1,0.9,1.9,1.9,1.9c1,0,1.9-0.9,1.9-1.9c0-0.5-0.2-0.9-0.5-1.3h1.8
				c0.3,0,0.6-0.3,0.6-0.6C61.5,424.1,61.2,423.8,60.8,423.8z"/>
		</g>
	</g>
	<g id="XMLID_331_">
		<g id="XMLID_429_">
			<linearGradient id="XMLID_5_" gradientUnits="userSpaceOnUse" x1="391.3788" y1="401.4805" x2="544.6031" y2="401.4805">
				<stop  offset="0" style="stop-color:#68C18B"/>
				<stop  offset="1" style="stop-color:#39B2BA"/>
			</linearGradient>
			<path id="XMLID_430_" class="st11" d="M524.7,382.5c10.4,0,18.9,8.5,18.9,18.9c0,10.4-8.5,18.9-18.9,18.9H411.3
				c-10.4,0-18.9-8.5-18.9-18.9c0-10.4,8.5-18.9,18.9-18.9H524.7 M524.7,381.5H411.3c-11,0-19.9,8.9-19.9,19.9
				c0,11,8.9,19.9,19.9,19.9h113.3c11,0,19.9-8.9,19.9-19.9C544.6,390.5,535.7,381.5,524.7,381.5L524.7,381.5z"/>
		</g>
	</g>
	<g id="XMLID_143_">
		<g id="XMLID_412_">
			<path id="XMLID_414_" class="st12" d="M505.1,324h14.2c0.6,0,1.1-0.4,1.2-1l1.7-10.3c0.1-0.8-0.5-1.4-1.2-1.4h-16.5
				c-0.7,0-1.3,0.6-1.2,1.3l0.6,10.3C503.9,323.5,504.5,324,505.1,324z"/>
			<path id="XMLID_413_" class="st12" d="M522.9,325.2h-20c-0.4,0-0.6-0.3-0.7-0.6l-0.1-1.3c-0.2-3.3-0.5-8.5-0.5-9.8
				c0-0.3-0.1-0.6-0.2-0.9l-1.4-2.8c-0.2-0.5-0.8-0.7-1.3-0.5c-0.5,0.2-0.7,0.8-0.5,1.3l1.4,2.8c0,0,0,0.1,0,0.1
				c0.1,1.3,0.3,6.5,0.5,9.8l0.1,1.3c0.1,1.4,1.2,2.5,2.6,2.5h1.2c-0.5,0.5-0.8,1.2-0.8,2c0,1.7,1.3,3,3,3c1.7,0,3-1.3,3-3
				c0-0.8-0.3-1.5-0.8-2h7.2c-0.5,0.5-0.8,1.2-0.8,2c0,1.7,1.3,3,3,3c1.7,0,3-1.3,3-3c0-0.8-0.3-1.5-0.8-2h2.8c0.5,0,1-0.4,1-1
				C523.9,325.7,523.4,325.2,522.9,325.2z"/>
		</g>
		<g id="XMLID_409_">
			<circle id="XMLID_411_" class="st13" cx="525.9" cy="306.4" r="10.9"/>
			<text id="XMLID_410_" transform="matrix(1 0 0 1 522.1278 311.8599)" class="st14 st15 st16">3</text>
		</g>
	</g>
	<circle id="XMLID_415_" class="st7" cx="55.7" cy="313.4" r="21.7"/>
	<g id="XMLID_370_">
		<linearGradient id="XMLID_6_" gradientUnits="userSpaceOnUse" x1="44.138" y1="314.3589" x2="68.272" y2="314.3589">
			<stop  offset="0" style="stop-color:#68C18B"/>
			<stop  offset="1" style="stop-color:#39B2BA"/>
		</linearGradient>
		<line id="XMLID_379_" class="st17" x1="68.3" y1="314.4" x2="44.1" y2="314.4"/>
		<linearGradient id="XMLID_8_" gradientUnits="userSpaceOnUse" x1="39.5389" y1="314.6165" x2="54.2916" y2="314.6165">
			<stop  offset="0" style="stop-color:#68C18B"/>
			<stop  offset="1" style="stop-color:#39B2BA"/>
		</linearGradient>
		<path id="XMLID_376_" class="st18" d="M53.3,305.5c-3.8,3.2-7.6,6.3-11.4,9.5c3.7,2.9,7.4,5.9,11.1,8.8"/>
	</g>
	<polygon id="XMLID_416_" class="st7" points="274.4,283.8 261.8,262.1 274.4,240.3 299.6,240.3 312.1,262.1 299.6,283.8 	"/>
	<text id="XMLID_378_" transform="matrix(1 0 0 1 273.4927 265.2379)" class="st19 st20 st21">LOGO</text>
	<g id="XMLID_450_">
		<g id="XMLID_452_">
			<linearGradient id="XMLID_9_" gradientUnits="userSpaceOnUse" x1="415.6201" y1="710.7889" x2="526.0294" y2="710.7889">
				<stop  offset="0" style="stop-color:#68C18B"/>
				<stop  offset="1" style="stop-color:#39B2BA"/>
			</linearGradient>
			<path id="XMLID_49_" class="st22" d="M511.7,725.2H430c-7.9,0-14.4-6.4-14.4-14.4l0,0c0-7.9,6.4-14.4,14.4-14.4h81.7
				c7.9,0,14.4,6.4,14.4,14.4l0,0C526,718.7,519.6,725.2,511.7,725.2z"/>
		</g>
		<linearGradient id="XMLID_10_" gradientUnits="userSpaceOnUse" x1="454.0037" y1="710.7889" x2="454.0037" y2="710.7889">
			<stop  offset="0" style="stop-color:#68C18B"/>
			<stop  offset="1" style="stop-color:#39B2BA"/>
		</linearGradient>
		<line id="XMLID_451_" class="st23" x1="454" y1="700.6" x2="454" y2="721"/>
	</g>
	<g id="XMLID_447_">
		<text id="XMLID_28_" transform="matrix(1 0 0 1 468.3304 715.0362)" class="st24 st5 st25">Ajouter</text>
	</g>
	<g id="XMLID_444_">
		<path id="XMLID_446_" class="st7" d="M432,714.7h10.8c0.5,0,0.9-0.3,0.9-0.8l1.3-7.9c0.1-0.6-0.3-1.1-0.9-1.1h-12.6
			c-0.5,0-1,0.5-0.9,1l0.4,7.9C431.1,714.3,431.5,714.7,432,714.7z"/>
		<path id="XMLID_445_" class="st7" d="M445.5,715.6h-15.2c-0.3,0-0.5-0.2-0.5-0.5l-0.1-1c-0.1-2.5-0.3-6.5-0.4-7.5
			c0-0.2-0.1-0.5-0.2-0.7l-1-2.2c-0.2-0.4-0.6-0.5-1-0.4c-0.4,0.2-0.5,0.6-0.4,1l1,2.2c0,0,0,0.1,0,0.1c0.1,1,0.3,5,0.4,7.5l0.1,1
			c0.1,1.1,0.9,1.9,2,1.9h0.9c-0.4,0.4-0.6,0.9-0.6,1.5c0,1.3,1,2.3,2.3,2.3s2.3-1,2.3-2.3c0-0.6-0.2-1.1-0.6-1.5h5.5
			c-0.4,0.4-0.6,0.9-0.6,1.5c0,1.3,1,2.3,2.3,2.3c1.3,0,2.3-1,2.3-2.3c0-0.6-0.2-1.1-0.6-1.5h2.1c0.4,0,0.8-0.3,0.8-0.8
			S446,715.6,445.5,715.6z"/>
	</g>
</g>
<g id="Layer_9">
	<g id="XMLID_647_">
		<g id="XMLID_643_">
			<linearGradient id="XMLID_11_" gradientUnits="userSpaceOnUse" x1="211.1734" y1="683.3506" x2="302.6966" y2="683.3506">
				<stop  offset="0" style="stop-color:#68C18B"/>
				<stop  offset="1" style="stop-color:#39B2BA"/>
			</linearGradient>
			<path id="XMLID_660_" class="st26" d="M290.8,695.3h-67.7c-6.6,0-11.9-5.3-11.9-11.9v0c0-6.6,5.3-11.9,11.9-11.9h67.7
				c6.6,0,11.9,5.3,11.9,11.9v0C302.7,689.9,297.4,695.3,290.8,695.3z"/>
		</g>
		<line id="XMLID_638_" class="st27" x1="243" y1="674.9" x2="243" y2="691.8"/>
		<g id="XMLID_635_">
			<text id="XMLID_26_" transform="matrix(1 0 0 1 257.8121 687.1827)" class="st7 st5 st28">SEND</text>
		</g>
		<g id="XMLID_631_">
			<path id="XMLID_633_" class="st7" d="M230,682.4c0.6,0,1.2-0.2,1.7-0.7l4.2-4.3c-0.2,0-0.4-0.1-0.5-0.1h-10.7
				c-0.2,0-0.4,0-0.6,0.1l4.3,4.3C228.8,682.1,229.4,682.4,230,682.4z"/>
			<path id="XMLID_632_" class="st7" d="M237.3,678.1l-4.5,4.6c-0.7,0.7-1.7,1.2-2.8,1.2c-1,0-2-0.4-2.7-1.1l-4.6-4.6
				c-0.5,0.5-0.8,1.2-0.8,1.9v1.2h-0.7c-0.3,0-0.6,0.3-0.6,0.6c0,0.3,0.3,0.6,0.6,0.6h0.7v1.2h-3.3c-0.3,0-0.6,0.3-0.6,0.6
				c0,0.3,0.3,0.6,0.6,0.6h3.3v1.2h-5.3c-0.3,0-0.6,0.3-0.6,0.6s0.3,0.6,0.6,0.6h5.4c0.2,1.4,1.3,2.4,2.7,2.4h10.7
				c1.5,0,2.7-1.2,2.7-2.7V680C238.1,679.3,237.8,678.6,237.3,678.1z"/>
		</g>
		<g id="XMLID_646_">
			<g id="XMLID_651_">
				<linearGradient id="XMLID_12_" gradientUnits="userSpaceOnUse" x1="108.7383" y1="683.7495" x2="200.2615" y2="683.7495">
					<stop  offset="0" style="stop-color:#68C18B"/>
					<stop  offset="1" style="stop-color:#39B2BA"/>
				</linearGradient>
				<path id="XMLID_663_" class="st29" d="M188.4,695.7h-67.7c-6.6,0-11.9-5.3-11.9-11.9l0,0c0-6.6,5.3-11.9,11.9-11.9h67.7
					c6.6,0,11.9,5.3,11.9,11.9l0,0C200.3,690.3,194.9,695.7,188.4,695.7z"/>
			</g>
			<linearGradient id="XMLID_29_" gradientUnits="userSpaceOnUse" x1="140.5563" y1="683.7495" x2="140.5563" y2="683.7495">
				<stop  offset="0" style="stop-color:#68C18B"/>
				<stop  offset="1" style="stop-color:#39B2BA"/>
			</linearGradient>
			<line id="XMLID_650_" class="st30" x1="140.6" y1="675.3" x2="140.6" y2="692.2"/>
		</g>
		<g id="XMLID_641_">
			<text id="XMLID_24_" transform="matrix(1 0 0 1 159.1564 686.957)" class="st7 st5 st28">PDF</text>
		</g>
		<g id="XMLID_634_">
			<path id="XMLID_637_" class="st7" d="M127.1,681.4v-4.8H123c-0.9,0-1.7,0.8-1.7,1.7V690c0,0.9,0.8,1.7,1.7,1.7h7.7
				c0.9,0,1.7-0.8,1.7-1.7v-7.1h-3.9C127.7,682.8,127.1,682.2,127.1,681.4z"/>
			<path id="XMLID_636_" class="st7" d="M128.4,676.8v4.1c0,0.4,0.3,0.6,0.6,0.6h3.3L128.4,676.8z"/>
		</g>
		<linearGradient id="XMLID_31_" gradientUnits="userSpaceOnUse" x1="130.2184" y1="690.3635" x2="138.7064" y2="690.3635">
			<stop  offset="0" style="stop-color:#68C18B"/>
			<stop  offset="1" style="stop-color:#39B2BA"/>
		</linearGradient>
		<path id="XMLID_645_" class="st31" d="M137.7,688.9h-0.9V688c0-0.2-0.2-0.4-0.4-0.4h-3.9c-0.2,0-0.4,0.2-0.4,0.4v0.9h-0.9
			c-0.5,0-0.7,0.6-0.4,0.9l3.2,3.2c0.2,0.2,0.5,0.2,0.8,0l3.2-3.2C138.4,689.5,138.1,688.9,137.7,688.9z"/>
		<linearGradient id="XMLID_33_" gradientUnits="userSpaceOnUse" x1="131.6125" y1="686.8536" x2="137.3123" y2="686.8536">
			<stop  offset="0" style="stop-color:#68C18B"/>
			<stop  offset="1" style="stop-color:#39B2BA"/>
		</linearGradient>
		<path id="XMLID_644_" class="st32" d="M132.3,687.1h4.2c0.1,0,0.2-0.1,0.2-0.2s-0.1-0.2-0.2-0.2h-4.2c-0.1,0-0.2,0.1-0.2,0.2
			S132.2,687.1,132.3,687.1z"/>
		<linearGradient id="XMLID_34_" gradientUnits="userSpaceOnUse" x1="131.6125" y1="685.9018" x2="137.3123" y2="685.9018">
			<stop  offset="0" style="stop-color:#68C18B"/>
			<stop  offset="1" style="stop-color:#39B2BA"/>
		</linearGradient>
		<path id="XMLID_640_" class="st33" d="M132.3,686.1h4.2c0.1,0,0.2-0.1,0.2-0.2s-0.1-0.2-0.2-0.2h-4.2c-0.1,0-0.2,0.1-0.2,0.2
			S132.2,686.1,132.3,686.1z"/>
		<path id="XMLID_630_" class="st7" d="M132.3,687.1h4.2c0.1,0,0.2-0.1,0.2-0.2s-0.1-0.2-0.2-0.2h-4.2c-0.1,0-0.2,0.1-0.2,0.2
			S132.2,687.1,132.3,687.1z"/>
		<path id="XMLID_627_" class="st7" d="M132.3,686.1h4.2c0.1,0,0.2-0.1,0.2-0.2s-0.1-0.2-0.2-0.2h-4.2c-0.1,0-0.2,0.1-0.2,0.2
			S132.2,686.1,132.3,686.1z"/>
		<line id="XMLID_656_" class="st27" x1="140.6" y1="675.3" x2="140.6" y2="692.2"/>
	</g>
</g>
<g id="Layer_8">
	<g id="XMLID_542_">
		<polygon id="XMLID_545_" class="st34" points="76.9,625.9 68,613.1 64.7,619.5 48.5,601.4 40.7,625.9 		"/>
		<ellipse id="XMLID_544_" class="st34" cx="76.1" cy="603.4" rx="4.7" ry="4.7"/>
		<rect id="XMLID_543_" x="34" y="592.6" class="st35" width="50.7" height="41.1"/>
	</g>
	<g id="XMLID_534_">
		<linearGradient id="XMLID_35_" gradientUnits="userSpaceOnUse" x1="100.4451" y1="612.9218" x2="191.9683" y2="612.9218">
			<stop  offset="0" style="stop-color:#68C18B"/>
			<stop  offset="1" style="stop-color:#39B2BA"/>
		</linearGradient>
		<path id="XMLID_619_" class="st36" d="M180.1,630.2h-67.7c-6.6,0-11.9-7.8-11.9-17.3l0,0c0-9.6,5.3-17.3,11.9-17.3h67.7
			c6.6,0,11.9,7.8,11.9,17.3l0,0C192,622.5,186.6,630.2,180.1,630.2z"/>
	</g>
	<line id="XMLID_533_" class="st27" x1="132.3" y1="599.4" x2="132.3" y2="626.7"/>
	<g id="XMLID_530_">
		<text id="XMLID_22_" transform="matrix(1 0 0 1 147.3763 614.6248)" class="st7 st5 st28">2</text>
	</g>
	<g id="XMLID_527_">
		<text id="XMLID_20_" transform="matrix(1 0 0 1 112.2396 614.6246)" class="st7 st5 st28">Qt°</text>
	</g>
	<path id="XMLID_526_" class="st7" d="M184.4,600.9l-4,4.1c-0.3,0.3-0.7,0.3-1,0l-4.1-4c-0.4-0.4-0.1-1.1,0.5-1.2l8.1,0
		C184.5,599.7,184.8,600.5,184.4,600.9z"/>
	<g id="XMLID_524_">
		<linearGradient id="XMLID_36_" gradientUnits="userSpaceOnUse" x1="224.5796" y1="606.4509" x2="316.1028" y2="606.4509">
			<stop  offset="0" style="stop-color:#68C18B"/>
			<stop  offset="1" style="stop-color:#39B2BA"/>
		</linearGradient>
		<path id="XMLID_592_" class="st37" d="M304.2,623.8h-67.7c-6.6,0-11.9-7.8-11.9-17.3l0,0c0-9.6,5.3-17.3,11.9-17.3h67.7
			c6.6,0,11.9,7.8,11.9,17.3l0,0C316.1,616,310.8,623.8,304.2,623.8z"/>
	</g>
	<g id="XMLID_556_">
		<g id="XMLID_577_">
			<path id="XMLID_578_" class="st13" d="M56.5,719.9H40.4v-18.2h16.1V719.9z M41.3,719h14.2v-16.4H41.3V719z"/>
		</g>
		<g id="XMLID_566_">
			<rect id="XMLID_576_" x="39" y="699.8" class="st13" width="18.8" height="0.9"/>
		</g>
		<g id="XMLID_563_">
			<polygon id="XMLID_565_" class="st13" points="45.5,699.1 44.5,699.1 44.5,696.5 52.4,696.5 52.4,699 51.4,699 51.4,697.5 
				45.5,697.5 			"/>
		</g>
	</g>
	<text id="XMLID_499_" transform="matrix(1 0 0 1 240.6416 612.452)" class="st7 st38 st39">Valider</text>
</g>
<g id="Layer_10">
	<path id="XMLID_347_" class="st40" d="M219.7,271.5"/>
	<path id="XMLID_679_" class="st41" d="M230.1,205.5h-78.7c-6.3,0-11.5-5.1-11.5-11.5v-6.4c0-6.3,5.1-11.5,11.5-11.5h78.7
		c6.3,0,11.5,5.1,11.5,11.5v6.4C241.5,200.4,236.4,205.5,230.1,205.5z"/>
	<linearGradient id="XMLID_37_" gradientUnits="userSpaceOnUse" x1="139.8458" y1="187.2897" x2="241.517" y2="187.2897">
		<stop  offset="0" style="stop-color:#68C18B"/>
		<stop  offset="1" style="stop-color:#39B2BA"/>
	</linearGradient>
	<path id="XMLID_654_" class="st42" d="M230.1,201.1h-78.7c-6.3,0-11.5-5.1-11.5-11.5V185c0-6.3,5.1-11.5,11.5-11.5h78.7
		c6.3,0,11.5,5.1,11.5,11.5v4.6C241.5,195.9,236.4,201.1,230.1,201.1z"/>
	<text id="XMLID_649_" transform="matrix(1 0 0 1 172.3477 190.8709)" class="st7 st15 st43">Login</text>
	<path id="XMLID_366_" class="st44" d="M197.1,123.5c-2.7-2.1-4.4-5.4-4.4-9c0-3.2,1.3-6,3.4-8.1c2.1-2.1,4.9-3.4,8.1-3.4h107.5
		c3.7,0,7,1.7,9.1,4.4"/>
	<linearGradient id="XMLID_38_" gradientUnits="userSpaceOnUse" x1="57.7709" y1="144.4659" x2="323.5919" y2="144.4659">
		<stop  offset="0" style="stop-color:#68C18B"/>
		<stop  offset="1" style="stop-color:#39B2BA"/>
	</linearGradient>
	<path id="XMLID_365_" class="st45" d="M311.6,155.9H69.7c-6.3,0-11.5-5.1-11.5-11.5v0c0-6.3,5.1-11.5,11.5-11.5h241.9
		c6.3,0,11.5,5.1,11.5,11.5v0C323.1,150.8,318,155.9,311.6,155.9z"/>
	<linearGradient id="XMLID_39_" gradientUnits="userSpaceOnUse" x1="57.7709" y1="114.4706" x2="323.6205" y2="114.4706">
		<stop  offset="0" style="stop-color:#68C18B"/>
		<stop  offset="1" style="stop-color:#39B2BA"/>
	</linearGradient>
	<path id="XMLID_364_" class="st46" d="M311.7,125.9H69.7c-6.3,0-11.5-5.1-11.5-11.5v0c0-6.3,5.1-11.5,11.5-11.5h241.9
		c6.3,0,11.5,5.1,11.5,11.5v0C323.1,120.8,318,125.9,311.7,125.9z"/>
	<text id="XMLID_363_" transform="matrix(1 0 0 1 161.5508 118.6806)" class="st47 st15 st48">Utilisateur</text>
	<text id="XMLID_350_" transform="matrix(1 0 0 1 158.6684 147.1623)" class="st47 st15 st48">Mot de passe</text>
	<g id="XMLID_642_">
		<text id="XMLID_18_" transform="matrix(1 0 0 1 144.8548 81.2107)" class="st47 st49 st50">NOM APP</text>
	</g>
	<g id="XMLID_348_">
		<text id="XMLID_17_" transform="matrix(1 0 0 1 131.8547 91.7107)" class="st47 st15 st48">Sign in into your account</text>
	</g>
</g>
</svg>
